<svg width="660" height="560" viewBox="0 0 660 560" fill="none" xmlns="http://www.w3.org/2000/svg"><rect width="660" height="560" rx="40" fill="#EAF2FF"/><circle cx="525" cy="115" r="110" fill="#0B63F6" opacity=".15"/><rect x="82" y="92" width="354" height="410" rx="34" fill="white"/><rect x="124" y="140" width="220" height="24" rx="12" fill="#071936" opacity=".85"/><rect x="124" y="190" width="270" height="16" rx="8" fill="#5E6B82" opacity=".28"/><rect x="124" y="224" width="240" height="16" rx="8" fill="#5E6B82" opacity=".22"/><rect x="124" y="282" width="270" height="94" rx="24" fill="#F6F8FC"/><rect x="150" y="314" width="52" height="28" rx="14" fill="#0B63F6"/><rect x="222" y="314" width="112" height="16" rx="8" fill="#0B63F6" opacity=".35"/><rect x="420" y="260" width="156" height="194" rx="34" fill="#0B63F6"/><circle cx="498" cy="210" r="56" fill="#071936"/><path d="M469 453c18-42 40-64 68-64 14 0 26 6 36 18" stroke="white" stroke-width="15" stroke-linecap="round" opacity=".75"/></svg>
