<svg width="900" height="660" viewBox="0 0 900 660" fill="none" xmlns="http://www.w3.org/2000/svg"><defs><linearGradient id="g" x1="0" x2="900" y1="0" y2="660"><stop stop-color="#F7FAFF"/><stop offset="1" stop-color="#DDEAFF"/></linearGradient><filter id="s" x="-20%" y="-20%" width="140%" height="140%"><feDropShadow dx="0" dy="24" stdDeviation="28" flood-color="#05224C" flood-opacity=".16"/></filter></defs><rect width="900" height="660" fill="url(#g)"/><circle cx="748" cy="106" r="170" fill="#CFE0FF" opacity=".55"/><rect x="84" y="86" width="732" height="488" rx="42" fill="white" filter="url(#s)"/><rect x="128" y="130" width="270" height="28" rx="14" fill="#EAF2FF"/><rect x="128" y="190" width="540" height="32" rx="16" fill="#071936" opacity=".9"/><rect x="128" y="246" width="470" height="18" rx="9" fill="#5E6B82" opacity=".35"/><rect x="128" y="286" width="642" height="126" rx="24" fill="#F3F7FF"/><rect x="160" y="318" width="52" height="52" rx="16" fill="#0B63F6"/><path d="M176 345l8 8 16-20" stroke="white" stroke-width="5" stroke-linecap="round" stroke-linejoin="round"/><rect x="236" y="321" width="220" height="18" rx="9" fill="#071936" opacity=".82"/><rect x="236" y="352" width="330" height="14" rx="7" fill="#5E6B82" opacity=".35"/><rect x="128" y="438" width="306" height="68" rx="22" fill="#fff" stroke="#DFE6F2"/><rect x="466" y="438" width="306" height="68" rx="22" fill="#fff" stroke="#DFE6F2"/><rect x="158" y="464" width="170" height="16" rx="8" fill="#0B63F6" opacity=".25"/><rect x="496" y="464" width="170" height="16" rx="8" fill="#0B63F6" opacity=".25"/><path d="M728 218c-34 20-43 64-43 119 0 82 28 132 62 132s62-50 62-132c0-55-9-99-43-119-10-6-28-6-38 0z" fill="#0B63F6" opacity=".16"/><circle cx="747" cy="190" r="42" fill="#0B63F6" opacity=".18"/></svg>
