<svg xmlns="http://www.w3.org/2000/svg" viewBox="0 0 256 256" fill="none">
  <rect width="256" height="256" rx="56" fill="#27A6E5"/>
  <path d="M57 125.9c53.58-23.34 89.31-38.72 107.18-46.14 51.02-21.22 61.62-24.91 68.53-25.03 1.52-.03 4.92.35 7.12 2.13 1.86 1.5 2.37 3.52 2.61 4.94.24 1.43.54 4.68.3 7.22-2.72 29.02-14.71 99.46-20.81 131.96-2.58 13.75-7.66 18.36-12.58 18.81-10.68.98-18.79-7.06-29.13-13.84-16.18-10.61-25.32-17.22-41.03-27.58-18.15-11.96-6.38-18.53 3.96-29.28 2.71-2.81 49.73-45.59 50.64-49.47.11-.49.21-2.3-.87-3.25-1.08-.96-2.68-.63-3.84-.36-1.64.37-27.81 17.66-78.5 51.88-7.43 5.1-14.15 7.58-20.18 7.45-6.64-.14-19.43-3.76-28.93-6.85-11.65-3.79-20.91-5.8-20.11-12.23.42-3.35 5.05-6.77 13.91-10.3Z" fill="#fff"/>
</svg>
