<svg xmlns="http://www.w3.org/2000/svg" viewBox="0 0 256 256" fill="none">
  <rect width="256" height="256" rx="56" fill="#25D366"/>
  <path d="M128.08 55c-39.51 0-71.59 31.68-71.59 70.76 0 12.49 3.29 24.69 9.54 35.45L55 201l41.14-10.78a72.17 72.17 0 0 0 31.94 7.44c39.5 0 71.43-31.7 71.43-70.78 0-39.07-31.93-70.88-71.43-70.88Zm0 129.94a57.74 57.74 0 0 1-29.43-8.05l-2.1-1.25-24.43 6.4 6.53-23.73-1.36-2.22a56.88 56.88 0 0 1-8.88-30.33c0-31.73 26.56-57.54 59.67-57.54 15.95 0 30.95 6.03 42.26 17 11.3 10.98 17.5 25.63 17.5 41.2 0 31.73-26.55 57.52-59.76 57.52Zm32.73-43.63c-1.79-.88-10.61-5.18-12.24-5.76-1.62-.59-2.81-.88-3.99.88-1.18 1.76-4.58 5.76-5.63 6.93-1.05 1.18-2.1 1.33-3.89.45-1.79-.88-7.54-2.74-14.35-8.73-5.3-4.67-8.88-10.44-9.93-12.2-1.04-1.76-.11-2.7.78-3.57.79-.78 1.79-2.05 2.68-3.08.9-1.03 1.18-1.76 1.79-2.94.6-1.18.3-2.2-.15-3.08-.44-.88-3.99-9.52-5.47-13.03-1.45-3.46-2.93-2.99-3.99-3.04l-3.4-.06c-1.18 0-3.09.44-4.72 2.2-1.62 1.76-6.2 6.05-6.2 14.76 0 8.71 6.35 17.13 7.23 18.3.89 1.17 12.48 19.75 30.85 26.88 4.37 1.87 7.8 2.99 10.46 3.83 4.39 1.39 8.39 1.2 11.55.73 3.52-.53 10.61-4.31 12.09-8.48 1.48-4.16 1.48-7.72 1.03-8.46-.44-.73-1.62-1.17-3.41-2.05Z" fill="#fff"/>
</svg>
